<?xml version="1.0" encoding="UTF-8"?>
<svg width="112px" height="72px" viewBox="0 0 112 72" version="1.1" xmlns="http://www.w3.org/2000/svg" xmlns:xlink="http://www.w3.org/1999/xlink">
    <!-- Generator: Sketch 48.1 (47250) - http://www.bohemiancoding.com/sketch -->
    <title>Gear</title>
    <desc>Created with Sketch.</desc>
    <defs></defs>
    <g id="Artboard" stroke="none" stroke-width="1" fill="none" fill-rule="evenodd" transform="translate(-228.000000, -256.000000)">
        <g id="Gear" transform="translate(230.000000, 258.000000)">
            <rect id="Rectangle" stroke="#FFFFFF" stroke-width="3" x="0" y="0" width="67.2509434" height="68"></rect>
            <path d="M67.891295,33.5454545 L107.630489,33.5454545" id="Line" stroke="#FFFFFF" stroke-width="3" stroke-linecap="square"></path>
            <g id="settings" transform="translate(21.800000, 23.000000)" fill="#FFFFFF" fill-rule="nonzero">
                <path d="M21.6175993,8.94444444 L19.4853832,8.94444444 C19.1426754,8.94444444 18.8603214,8.75405556 18.7290626,8.43461111 C18.5978039,8.11516667 18.6644884,7.77868519 18.9063253,7.5342037 L20.4139017,6.01322222 C20.63548,5.78961111 20.7574535,5.49188889 20.7574535,5.17585185 C20.7574535,4.85938889 20.63548,4.56209259 20.4139017,4.33805556 L18.4922904,2.39881481 C18.0491338,1.95159259 17.2763532,1.95074074 16.8323525,2.39881481 L15.3251981,3.9197963 C15.0829392,4.16385185 14.7486726,4.232 14.4329763,4.09911111 C14.1164359,3.96664815 13.9277778,3.6817037 13.9277778,3.33585185 L13.9277778,1.18407407 C13.9277778,0.53112963 13.4014766,0 12.754468,0 L10.0364411,0 C9.38943249,0 8.86313131,0.53112963 8.86313131,1.18407407 L8.86313131,3.33585185 C8.86313131,3.6817037 8.67447323,3.96664815 8.35793283,4.09911111 C8.04223653,4.23242593 7.70796987,4.16385185 7.46571094,3.9197963 L5.95855657,2.39881481 C5.51455589,1.95074074 4.74177525,1.95159259 4.29861869,2.39881481 L2.37700741,4.33805556 C2.15542912,4.56166667 2.03345556,4.85938889 2.03345556,5.17585185 C2.03345556,5.49188889 2.15542912,5.78918519 2.37700741,6.01322222 L3.88458384,7.5342037 C4.12642071,7.77868519 4.19268316,8.11516667 4.06184646,8.43461111 C3.93100976,8.75405556 3.64823367,8.94444444 3.30552593,8.94444444 L1.17330976,8.94444444 C0.526301178,8.94444444 0,9.47557407 0,10.1285185 L0,12.8710556 C0,13.5244259 0.526301178,14.0555556 1.17330976,14.0555556 L3.30552593,14.0555556 C3.64823367,14.0555556 3.93058771,14.2459444 4.06184646,14.5653889 C4.19310522,14.8848333 4.12642071,15.2213148 3.88458384,15.4657963 L2.37700741,16.9867778 C2.15542912,17.2103889 2.03345556,17.5081111 2.03345556,17.8241481 C2.03345556,18.1406111 2.15542912,18.4379074 2.37700741,18.6619444 L4.29861869,20.6011852 C4.74219731,21.0488333 5.51455589,21.0496852 5.95855657,20.6011852 L7.46571094,19.0797778 C7.70796987,18.8357222 8.04097037,18.7684259 8.35793283,18.9008889 C8.67447323,19.0333519 8.86313131,19.3182963 8.86313131,19.6641481 L8.86313131,21.8159259 C8.86313131,22.4688704 9.38943249,23 10.0364411,23 L12.754046,23 C13.4010545,23 13.9273557,22.4688704 13.9273557,21.8159259 L13.9273557,19.6641481 C13.9273557,19.3182963 14.1160138,19.0333519 14.4325542,18.9008889 C14.7495167,18.768 15.0825172,18.8357222 15.3247761,19.0797778 L16.8319305,20.6011852 C17.2759311,21.0492593 18.0487118,21.0484074 18.4918684,20.6011852 L20.4134796,18.6619444 C20.6350579,18.4383333 20.7570315,18.1406111 20.7570315,17.8241481 C20.7570315,17.5081111 20.6350579,17.2108148 20.4134796,16.9867778 L18.9059032,15.4657963 C18.6640663,15.2213148 18.5978039,14.8848333 18.7286406,14.5653889 C18.8594773,14.2459444 19.1426754,14.0555556 19.4853832,14.0555556 L21.6175993,14.0555556 C22.2646079,14.0555556 22.7909091,13.5244259 22.7909091,12.8714815 L22.7909091,10.1285185 C22.7909091,9.47557407 22.2646079,8.94444444 21.6175993,8.94444444 Z M21.9468013,12.8714815 C21.9468013,13.0546296 21.7990825,13.2037037 21.6175993,13.2037037 L19.4853832,13.2037037 C18.7999677,13.2037037 18.2112025,13.6006667 17.9491071,14.2395556 C17.6865896,14.8784444 17.8246012,15.5795185 18.3095411,16.0684815 L19.8171175,17.589463 C19.9458439,17.7193704 19.9458439,17.9302037 19.8171175,18.0596852 L17.8955062,19.9989259 C17.7672019,20.1284074 17.5582852,20.1292593 17.4295588,19.9989259 L15.9224044,18.4775185 C15.4374645,17.9881296 14.7431859,17.8497037 14.1101051,18.1137778 C13.4770242,18.3782778 13.08367,18.9724444 13.08367,19.6641481 L13.08367,21.8159259 C13.08367,21.9990741 12.9359512,22.1481481 12.754468,22.1481481 L10.0364411,22.1481481 C9.85495791,22.1481481 9.70723906,21.9990741 9.70723906,21.8159259 L9.70723906,19.6641481 C9.70723906,18.9724444 9.31388485,18.3782778 8.68080404,18.1137778 C8.46851094,18.0247593 8.24988704,17.9813148 8.03379545,17.9813148 C7.60583283,17.9813148 7.19095387,18.1516852 6.86850471,18.4770926 L5.36135034,19.9985 C5.23220185,20.1288333 5.02328519,20.1279815 4.89540286,19.9985 L2.97379158,18.0592593 C2.84506515,17.9293519 2.84506515,17.7185185 2.97379158,17.589037 L4.48136801,16.0680556 C4.96588586,15.5790926 5.10431953,14.8780185 4.84180202,14.2391296 C4.57970657,13.6006667 3.99094141,13.2037037 3.30552593,13.2037037 L1.17330976,13.2037037 C0.991826599,13.2037037 0.844107744,13.0546296 0.844107744,12.8714815 L0.844107744,10.1285185 C0.844107744,9.94537037 0.991826599,9.7962963 1.17330976,9.7962963 L3.30552593,9.7962963 C3.99094141,9.7962963 4.57970657,9.39933333 4.84180202,8.76044444 C5.10431953,8.12155556 4.96630791,7.42048148 4.48136801,6.93151852 L2.97379158,5.41053704 C2.84506515,5.28062963 2.84506515,5.0697963 2.97379158,4.94031481 L4.89540286,3.00107407 C5.02370724,2.87116667 5.23262391,2.87116667 5.36135034,3.00107407 L6.86850471,4.52205556 C7.35260051,5.01059259 8.04687912,5.15072222 8.68080404,4.8857963 C9.31388485,4.62172222 9.70723906,4.02755556 9.70723906,3.33585185 L9.70723906,1.18407407 C9.70723906,1.00092593 9.85495791,0.851851852 10.0364411,0.851851852 L12.754046,0.851851852 C12.9359512,0.851851852 13.08367,1.00092593 13.08367,1.18407407 L13.08367,3.33585185 C13.08367,4.02755556 13.4770242,4.62172222 14.1101051,4.88622222 C14.74403,5.15114815 15.4378865,5.01144444 15.9224044,4.52248148 L17.4295588,3.0015 C17.5587072,2.87159259 17.7676239,2.87159259 17.8955062,3.0015 L19.8171175,4.94074074 C19.9458439,5.07064815 19.9458439,5.28148148 19.8171175,5.41096296 L18.3095411,6.93194444 C17.8250232,7.42090741 17.6865896,8.12198148 17.9491071,8.76087037 C18.2112025,9.39975926 18.7999677,9.79672222 19.4853832,9.79672222 L21.6175993,9.79672222 C21.7990825,9.7962963 21.9468013,9.94537037 21.9468013,10.1285185 L21.9468013,12.8714815 Z" id="Shape"></path>
                <path d="M11.8909091,8 C9.70518384,8 7.92727273,9.79422222 7.92727273,12 C7.92727273,14.2057778 9.70518384,16 11.8909091,16 C14.0766343,16 15.8545455,14.2057778 15.8545455,12 C15.8545455,9.79422222 14.0766343,8 11.8909091,8 Z M11.8909091,15.1111111 C10.1913899,15.1111111 8.80808081,13.7151111 8.80808081,12 C8.80808081,10.2848889 10.1913899,8.88888889 11.8909091,8.88888889 C13.5904283,8.88888889 14.9737374,10.2848889 14.9737374,12 C14.9737374,13.7151111 13.5904283,15.1111111 11.8909091,15.1111111 Z" id="Shape"></path>
            </g>
        </g>
    </g>
</svg>