<?xml version="1.0" encoding="UTF-8"?>
<svg width="79px" height="79px" viewBox="0 0 79 79" version="1.1" xmlns="http://www.w3.org/2000/svg" xmlns:xlink="http://www.w3.org/1999/xlink">
    <!-- Generator: Sketch 48.1 (47250) - http://www.bohemiancoding.com/sketch -->
    <title>Handshake</title>
    <desc>Created with Sketch.</desc>
    <defs></defs>
    <g id="Artboard" stroke="none" stroke-width="1" fill="none" fill-rule="evenodd" transform="translate(-19.000000, -84.000000)">
        <g id="Handshake" transform="translate(20.000000, 85.000000)">
            <g id="hand-shake" transform="translate(20.000000, 27.000000)" fill="#152B58" fill-rule="nonzero">
                <path d="M30.7252635,16.2194072 C29.9715595,14.5989307 27.2751624,12.3496482 24.670053,10.1763268 C23.2170275,8.96504973 21.844038,7.81983249 20.9687422,6.91719555 C20.749487,6.68946711 20.4214667,6.61683226 20.1318518,6.72412144 C19.5926024,6.92547237 19.2597064,7.08056595 18.9973202,7.20100521 C18.59729,7.38580251 18.4628715,7.44853613 17.9235471,7.50461735 C17.6850892,7.52937044 17.4707096,7.66141271 17.3378662,7.86601248 C16.2064851,9.61025453 15.0351235,9.46173598 14.2526155,9.19115375 C14.0029811,9.10536882 13.9581999,8.99475344 13.9341966,8.88916604 C13.7661734,8.16475135 14.6095148,6.47821495 15.7024156,5.35109841 C18.3027994,2.66786332 19.6437594,1.99620366 22.4761502,3.30154245 C25.6893686,4.78340173 28.9090379,5.94354818 28.9410673,5.95507384 C29.3619504,6.10521681 29.8147878,5.87748837 29.9603829,5.44678458 C30.1044028,5.01608079 29.8851475,4.54577206 29.4674899,4.39562909 C29.4354605,4.38410343 26.2798501,3.24708565 23.1306155,1.79322831 C19.4613342,0.101741291 17.4482065,1.2156304 14.5726097,4.1827525 C13.4780587,5.31149346 11.9914285,7.5953529 12.3754815,9.27036364 C12.5402793,9.98325267 13.0267964,10.5113444 13.7500462,10.7571735 C15.5631214,11.3743764 17.2176997,10.7835511 18.4498947,9.097092 C18.9587649,9.01625769 19.2356281,8.89744285 19.6516355,8.70436874 C19.8020313,8.63506008 19.9780805,8.55422577 20.2117378,8.45683783 C21.1270891,9.34299849 22.3624345,10.3743515 23.6634141,11.4585369 C26.0157386,13.4206062 28.6833317,15.6451355 29.2834145,16.9322963 C29.5794804,17.5675998 29.2609864,17.9818273 29.0449566,18.1715753 C28.7281129,18.4521361 28.2944781,18.5412472 28.0592456,18.3712244 C27.8000098,18.1880515 27.4623882,18.1765259 27.1951264,18.3415207 C26.9262893,18.5065155 26.7758935,18.8184045 26.8094982,19.1385702 C26.8638807,19.6633358 26.3982164,19.9636991 26.1965886,20.067662 C25.6844929,20.3349954 25.1500442,20.2888154 24.9499916,20.0973658 C24.7259357,19.8828647 24.4042913,19.8201311 24.119477,19.9290447 C23.8346627,20.0395828 23.6361853,20.3102423 23.6073813,20.6237557 C23.5593747,21.1649975 23.170521,21.6848124 22.663226,21.8877878 C22.4183923,21.983474 22.0631432,22.0412569 21.7447243,21.7408937 C21.5463219,21.5560964 21.271034,21.4850859 21.0134484,21.549444 C20.7526374,21.6154264 20.5429835,21.8102023 20.4517709,22.0692589 C20.4213917,22.151795 20.3525322,22.3498197 19.6036289,22.3498197 C19.0707554,22.3498197 18.1121981,21.9785233 17.6433834,21.6583576 C17.0817059,21.27716 13.5595949,18.5675474 10.5176252,15.9403935 C10.0903662,15.5690971 9.35106421,14.773672 8.69817412,14.0706842 C8.11886919,13.4469063 7.58922111,12.8809114 7.31715857,12.6432817 C6.97631154,12.3462446 6.47224199,12.3908002 6.1890029,12.7406697 C5.9041886,13.0888374 5.94574434,13.6103541 6.28344093,13.904065 C6.53150016,14.1202678 7.0115664,14.6433315 7.54121448,15.2126526 C8.25493797,15.9816229 8.99258975,16.777048 9.4887082,17.2061273 C12.4683443,19.7788244 16.0496385,22.5561212 16.763287,23.0395801 C17.3521932,23.4389557 18.6211433,24 19.6037039,24 C20.3925877,24 20.9991214,23.8135009 21.4199295,23.448857 C21.9831822,23.674961 22.6233205,23.6765854 23.2393805,23.4290545 C23.967506,23.1385924 24.5659386,22.552795 24.9052104,21.8432322 C25.5356724,21.9818495 26.257422,21.8844616 26.9134625,21.5445707 C27.5551761,21.2112549 28.0191901,20.7013412 28.2496219,20.1055652 C28.8865348,20.1402195 29.5425753,19.9075405 30.0850501,19.4273305 C31.0037019,18.6171309 31.2564868,17.356425 30.7252635,16.2194072 Z" id="Shape"></path>
                <path d="M16.1817973,2 L8.81820274,2 C8.36656894,2 8,2.22400862 8,2.5 C8,2.77599138 8.36656894,3 8.81820274,3 L16.1817973,3 C16.6334311,3 17,2.77599138 17,2.5 C17,2.22400862 16.6334311,2 16.1817973,2 Z" id="Shape"></path>
                <path d="M31.896398,14.2238063 C31.7075095,13.9928463 31.3297896,13.9293028 31.0507693,14.0866487 L29.2693228,15.0771055 C28.9903025,15.2324184 28.9159351,15.5461175 29.1036242,15.7770775 C29.2218008,15.921327 29.4143449,16 29.6105444,16 C29.7263222,16 29.8444989,15.972767 29.94931,15.9142824 L31.7307564,14.9238256 C32.0097197,14.7684654 32.0840299,14.4548136 31.896398,14.2238063 Z" id="Shape"></path>
                <path d="M27.6667268,18.4374017 C27.0403692,17.9439841 24.2391065,15.0762406 22.5069248,13.2705423 C22.1727088,12.9205734 21.6181154,12.9083528 21.2698747,13.2442967 C20.9199116,13.5785182 20.9094136,14.1331208 21.2436295,14.4813673 C21.6933242,14.9502617 25.6597908,19.0848482 26.5818987,19.8127539 C26.7410922,19.9387329 26.9335841,20 27.1225494,20 C27.3797522,20 27.6369549,19.8845193 27.8118954,19.6657785 C28.1111725,19.2877596 28.0464617,18.7366017 27.6667268,18.4374017 Z" id="Shape"></path>
                <path d="M25.679053,19.7284363 C24.6521582,19.0440676 22.0721843,16.7595792 21.4892674,16.2309832 C21.1669515,15.9395288 20.6269457,15.9223844 20.2772277,16.1881223 C19.9291972,16.4552665 19.9052506,16.9081862 20.2257986,17.1982342 C20.2566561,17.2253571 23.3355727,19.9956475 24.6075595,20.8442942 C24.7653022,20.9485669 24.95559,21 25.1424223,21 C25.3927375,21 25.6429723,20.9071123 25.8126884,20.7328558 C26.1076826,20.42419 26.0476552,19.9741501 25.679053,19.7284363 Z" id="Shape"></path>
                <path d="M21.6954188,20.7389227 C20.4731859,19.8805975 17.9722327,17.6625824 17.483693,17.2269594 C17.1597141,16.9384856 16.6162942,16.9227531 16.2717452,17.1926826 C15.9255088,17.4626122 15.9083135,17.9139007 16.230605,18.2024415 C16.9334432,18.8293985 19.3264034,20.9431775 20.5897765,21.8314949 C20.7508821,21.9443002 20.946298,22 21.1417138,22 C21.3850997,22 21.628566,21.9129022 21.7982693,21.7458029 C22.1033655,21.4430024 22.0570828,20.9931198 21.6954188,20.7389227 Z" id="Shape"></path>
                <path d="M8.76623244,1.8187708 C7.48067491,0.51950419 2.34006205,0.0986657114 0.795044518,0.00108758613 C0.582062308,-0.0100877718 0.38553366,0.0650646352 0.235553121,0.217094504 C0.0855022671,0.367474321 0,0.578681085 0,0.799488157 L0,15.1999494 C0,15.6415635 0.336032347,16 0.750043325,16 L5.25016264,16 C5.57417124,16 5.86217887,15.7776179 5.9626581,15.4479823 C6.07213756,15.0895458 8.65675297,6.62852485 8.99721512,2.46836661 C9.01676252,2.22513382 8.93273685,1.98512613 8.76623244,1.8187708 Z M4.70262469,14.3999738 L1.50001634,14.3999738 L1.50001634,1.65714063 C3.91060369,1.86032213 6.51167266,2.30193628 7.45669771,2.79155196 C7.05921061,6.29566419 5.26063948,12.5214636 4.70262469,14.3999738 Z" id="Shape"></path>
                <path d="M37.2838712,1 C31.6609808,1 28.541621,2.60800251 28.411312,2.67520262 C28.2251467,2.77277777 28.0861773,2.95360305 28.0289112,3.1728284 C27.971645,3.39205374 28.0002445,3.62725411 28.1076605,3.82240441 C28.9927681,5.4144319 31.7641001,14.2560457 32.2968833,16.4128241 C32.3828161,16.7599996 32.6649844,17 32.9872323,17 L37.2838712,17 C37.6791619,17 38,16.6415744 38,16.1999737 L38,1.79995125 C38,1.35677556 37.6791619,1 37.2838712,1 Z M36.5678094,15.4000225 L33.5229024,15.4000225 C32.8440334,12.9295936 30.8389129,6.48798357 29.720377,3.82562942 C30.8131331,3.41125377 33.1605749,2.69920266 36.5678094,2.60965252 L36.5678094,15.4000225 Z" id="Shape"></path>
            </g>
            <circle id="Oval" stroke="#152B58" stroke-width="2" cx="38.5" cy="38.5" r="38.5"></circle>
        </g>
    </g>
</svg>